<svg xmlns="http://www.w3.org/2000/svg" viewBox="0 0 512 512">
  <style type="text/css">
    .a {
      fill: #ffffff;
    }
  </style>
  <path
    class="a"
    d="M130.2,13.9c0.6,0,1.1,0,1.7,0c17.1,44.7,34.2,89.5,51.3,134.2c-12,0-23.9,0-35.9,0
	c-7.7-21.7-15.4-43.3-23.1-65c-0.3,0.3-0.6,0.6-0.8,0.8c-7.7,21.4-15.4,42.7-23.1,64.1c-6.8,0-13.7,0-20.5,0c0-0.6,0-1.1,0-1.7
	C96.6,102.3,113.4,58.1,130.2,13.9z"
  />
  <path
    class="a"
    d="M325.1,148.1c-11.7,0-23.4,0-35,0c-0.3-34.5-0.6-69-0.9-103.4c-6.8-14.4-20.5-14.8-32.5-23.9
	c33.9,0,67.8,0,101.7,0c0,0.3,0,0.6,0,0.9c-0.6,0-1.1,0-1.7,0c-12.2,7.1-27.3,9.5-31.6,23.9C325.1,79.8,325.1,113.9,325.1,148.1z"
  />
  <path
    class="a"
    d="M290,172.9c11.7,0,23.4,0,35,0c0,31.1,0,62.1,0,93.2c47.3,0.6,98,7.6,118-20.5c-3.3-1.9-19.6-8.9-21.4-11.1
	c11.4,0,22.8,0,34.2,0c2.3-2.3,4.6-4.6,6.8-6.8c0,0.6,0,1.1,0,1.7c-0.9,1.7-1.7,3.4-2.6,5.1c16,0,31.9,0,47.9,0c0,0.3,0,0.6,0,0.9
	c-0.3,0-0.6,0-0.9,0c-12.6,7.4-28,9.7-32.5,24.8c0,33.9,0,67.8,0,101.7c-6.8,0-13.7,0-20.5,0c0.2-32.5,5-84.9-4.3-109.4
	c-0.3,0.3-0.6,0.6-0.9,0.9c-6.3,10.5-12.5,21.1-18.8,31.6c-29.9,0-59.8,0-89.8,0c0,0.3,0,0.6,0,0.9c21.6,25.4,43.3,50.7,65,76.1
	c-17.4,0-34.8,0-52.1,0c-13.7-16.8-27.4-33.6-41-50.4c-0.3,0-0.6,0-0.9,0c0,16.8,0,33.6,0,50.4c-6.5,0-13.1,0-19.7,0
	c0-25.6,0-51.3,0-76.9c-44.7,0-89.5,0-134.2,0c0-0.3,0-0.6,0-0.9c0.3,0,0.6,0,0.9,0c12.4-7.8,23.3-8.2,32.5-18.8
	c-0.2-17.5-15.2-43.2-21.4-58.1c-2-5.4-4-10.8-6-16.2c-26.5,0-53,0-79.5,0c-6.3,17.4-12.5,34.8-18.8,52.1c-2.1,5.4-8.3,15-6.8,20.5
	c5.3,15.1,25.1,11.6,32.5,21.4c-28.8,0-57.6,0-86.3,0c0-0.3,0-0.6,0-0.9c0.3,0,0.6,0,0.8,0c6.1-3.8,13.3-4.5,18.8-8.5
	c15.1-11.2,21.7-38.8,29.1-57.3c5.4-15.1,10.8-30.2,16.2-45.3c41.3,0,82.6,0,123.9,0c5.4,13.7,10.8,27.4,16.2,41
	c7.8,19.4,12.6,40.8,24.8,55.6c4.4,5.4,15.2,16.3,26.5,13.7C300,274.2,290.9,220,290,172.9z"
  />
  <path
    class="a"
    d="M131.9,227.6c0.6,0,1.1,0,1.7,0c17.1,44.7,34.2,89.5,51.3,134.2c-12,0-23.9,0-35.9,0c-8-21.6-16-43.3-23.9-65
	c0,0.3,0,0.6,0,0.9c-7.7,21.4-15.4,42.7-23.1,64.1c-6.8,0-13.7,0-20.5,0c0-0.6,0-1.1,0-1.7C98.3,316,115.1,271.8,131.9,227.6z"
  />
  <path
    class="a"
    d="M291.7,386.6c6.5,0,13.1,0,19.7,0c0.3,29.3,0.6,58.7,0.9,88c4.8,12,18.7,19.8,32.5,23.1c0,0.3,0,0.6,0,0.9
	c-61.8,0-123.7,0-185.5,0c0-0.3,0-0.6,0-0.9c0.6,0,1.1,0,1.7,0c11.4-7,31.1-6.3,31.6-23.9c-9.1-23.1-18.2-46.2-27.4-69.2
	c-26.5,0-53,0-79.5,0c-6.3,17.4-12.5,34.8-18.8,52.1c-2.1,5.4-8.3,15-6.8,20.5c2.9,12,21.6,16.2,32.5,20.5c0,0.3,0,0.6,0,0.9
	c-28.8,0-57.6,0-86.3,0c0-0.3,0-0.6,0-0.9c0.6,0,1.1,0,1.7,0c9.7-6.6,19.6-7.8,26.5-17.1C43.8,468,49,446.8,55,431.9
	c5.4-15.1,10.8-30.2,16.2-45.3c41.3,0,82.6,0,123.9,0c4.3,10.8,8.6,21.7,12.8,32.5c10.7,26.6,18.1,76.4,52.1,78.6
	c3.7-1.7,7.4-3.4,11.1-5.1c7.8-4.1,15.9-10,19.7-18C291.2,445.3,291.5,416,291.7,386.6z"
  />
  <path
    class="a"
    d="M454.1,386.6c6.8,0,13.7,0,20.5,0c0,39.6,0,79.2,0,118.8c-0.3,0-0.6,0-0.9,0c-33-39.6-66.1-79.2-99.2-118.8
	c17.4,0,34.8,0,52.1,0c9.1,10.8,18.2,21.7,27.4,32.5C454.1,408.3,454.1,397.5,454.1,386.6z"
  />
</svg>
